TITLE ""
FILE "DISC1Track32.mp3" MP3
  TRACK 01 AUDIO
    TITLE "DISC1Track32_01"
    INDEX 01 00:00:00
  TRACK 02 AUDIO
    TITLE "DISC1Track32_02"
    INDEX 01 00:02:56
  TRACK 03 AUDIO
    TITLE "DISC1Track32_03"
    INDEX 01 00:03:03
  TRACK 04 AUDIO
    TITLE "DISC1Track32_04"
    INDEX 01 00:05:66
  TRACK 05 AUDIO
    TITLE "DISC1Track32_05"
    INDEX 01 00:08:37
  TRACK 06 AUDIO
    TITLE "DISC1Track32_06"
    INDEX 01 00:10:73
  TRACK 07 AUDIO
    TITLE "DISC1Track32_07"
    INDEX 01 00:11:24
  TRACK 08 AUDIO
    TITLE "DISC1Track32_08"
    INDEX 01 00:14:01
  TRACK 09 AUDIO
    TITLE "DISC1Track32_09"
    INDEX 01 00:16:37
  TRACK 10 AUDIO
    TITLE "DISC1Track32_10"
    INDEX 01 00:18:65
  TRACK 11 AUDIO
    TITLE "DISC1Track32_11"
    INDEX 01 00:19:15
  TRACK 12 AUDIO
    TITLE "DISC1Track32_12"
    INDEX 01 00:22:28
  TRACK 13 AUDIO
    TITLE "DISC1Track32_13"
    INDEX 01 00:25:14
  TRACK 14 AUDIO
    TITLE "DISC1Track32_14"
    INDEX 01 00:27:68
  TRACK 15 AUDIO
    TITLE "DISC1Track32_15"
    INDEX 01 00:28:18
  TRACK 16 AUDIO
    TITLE "DISC1Track32_16"
    INDEX 01 00:31:25
  TRACK 17 AUDIO
    TITLE "DISC1Track32_17"
    INDEX 01 00:33:72
  TRACK 18 AUDIO
    TITLE "DISC1Track32_18"
    INDEX 01 00:36:41
  TRACK 19 AUDIO
    TITLE "DISC1Track32_19"
    INDEX 01 00:36:65
  TRACK 20 AUDIO
    TITLE "DISC1Track32_20"
    INDEX 01 00:40:00
  TRACK 21 AUDIO
    TITLE "DISC1Track32_21"
    INDEX 01 00:42:67
  TRACK 22 AUDIO
    TITLE "DISC1Track32_22"
    INDEX 01 00:45:50
  TRACK 23 AUDIO
    TITLE "DISC1Track32_23"
    INDEX 01 00:46:01
  TRACK 24 AUDIO
    TITLE "DISC1Track32_24"
    INDEX 01 00:49:28
  TRACK 25 AUDIO
    TITLE "DISC1Track32_25"
    INDEX 01 00:52:09
  TRACK 26 AUDIO
    TITLE "DISC1Track32_26"
    INDEX 01 00:54:57
  TRACK 27 AUDIO
    TITLE "DISC1Track32_27"
    INDEX 01 00:55:05
  TRACK 28 AUDIO
    TITLE "DISC1Track32_28"
    INDEX 01 00:57:65
  TRACK 29 AUDIO
    TITLE "DISC1Track32_29"
    INDEX 01 01:00:28
  TRACK 30 AUDIO
    TITLE "DISC1Track32_30"
    INDEX 01 01:02:60
  TRACK 31 AUDIO
    TITLE "DISC1Track32_31"
    INDEX 01 01:03:11
  TRACK 32 AUDIO
    TITLE "DISC1Track32_32"
    INDEX 01 01:05:51
  TRACK 33 AUDIO
    TITLE "DISC1Track32_33"
    INDEX 01 01:07:71
  TRACK 34 AUDIO
    TITLE "DISC1Track32_34"
    INDEX 01 01:10:07
  TRACK 35 AUDIO
    TITLE "DISC1Track32_35"
    INDEX 01 01:10:32
  TRACK 36 AUDIO
    TITLE "DISC1Track32_36"
    INDEX 01 01:13:19
  TRACK 37 AUDIO
    TITLE "DISC1Track32_37"
    INDEX 01 01:15:55
  TRACK 38 AUDIO
    TITLE "DISC1Track32_38"
    INDEX 01 01:18:08
  TRACK 39 AUDIO
    TITLE "DISC1Track32_39"
    INDEX 01 01:18:34
  TRACK 40 AUDIO
    TITLE "DISC1Track32_40"
    INDEX 01 01:21:56
  TRACK 41 AUDIO
    TITLE "DISC1Track32_41"
    INDEX 01 01:24:38
  TRACK 42 AUDIO
    TITLE "DISC1Track32_42"
    INDEX 01 01:27:17
